<?xml version="1.0" encoding="UTF-8" standalone="no"?>
<svg
   xmlns:dc="http://purl.org/dc/elements/1.1/"
   xmlns:cc="http://creativecommons.org/ns#"
   xmlns:rdf="http://www.w3.org/1999/02/22-rdf-syntax-ns#"
   xmlns:svg="http://www.w3.org/2000/svg"
   xmlns="http://www.w3.org/2000/svg"
   xmlns:sodipodi="http://sodipodi.sourceforge.net/DTD/sodipodi-0.dtd"
   xmlns:inkscape="http://www.inkscape.org/namespaces/inkscape"
   width="196.43153mm"
   height="30.348953mm"
   viewBox="0 0 196.43153 30.348953"
   version="1.1"
   id="svg2040"
   inkscape:version="1.0.1 (3bc2e813f5, 2020-09-07)"
   sodipodi:docname="title.svg">
  <defs
     id="defs2034" />
  <sodipodi:namedview
     id="base"
     pagecolor="#ffffff"
     bordercolor="#666666"
     borderopacity="1.0"
     inkscape:pageopacity="0.0"
     inkscape:pageshadow="2"
     inkscape:zoom="0.35"
     inkscape:cx="380.20472"
     inkscape:cy="100.15369"
     inkscape:document-units="mm"
     inkscape:current-layer="layer1"
     inkscape:document-rotation="0"
     showgrid="false"
     fit-margin-top="0"
     fit-margin-left="0"
     fit-margin-right="0"
     fit-margin-bottom="0"
     inkscape:window-width="1916"
     inkscape:window-height="1037"
     inkscape:window-x="0"
     inkscape:window-y="0"
     inkscape:window-maximized="1" />
  <metadata
     id="metadata2037">
    <rdf:RDF>
      <cc:Work
         rdf:about="">
        <dc:format>image/svg+xml</dc:format>
        <dc:type
           rdf:resource="http://purl.org/dc/dcmitype/StillImage" />
        <dc:title></dc:title>
      </cc:Work>
    </rdf:RDF>
  </metadata>
  <g
     inkscape:label="Calque 1"
     inkscape:groupmode="layer"
     id="layer1"
     transform="translate(-5.2375003,-121.66767)">
    <g
       id="g3099"
       transform="translate(-155.59564,18.257127)">
      <g
         id="g2732"
         transform="matrix(1.0630162,0,0,1.0630162,-12.336885,-5.2683228)">
        <path
           id="path2311"
           style="fill:#f47721;fill-opacity:1;stroke-width:0.264583"
           d="m 202.52211,109.11154 c -0.91255,0 -1.67174,0.75847 -1.67174,1.67121 v 6.23528 0.031 12.0344 c 0,0.88212 0.75919,1.70274 1.67174,1.70274 1.01018,0 1.79472,-0.82062 1.79472,-1.70274 v -5.54281 c 1.13321,0.82042 2.64614,1.29243 4.22041,1.29243 4.18914,0 7.62486,-3.49751 7.62486,-7.81503 0,-4.31241 -3.43572,-7.90649 -7.62486,-7.90649 -1.60497,0 -3.118,0.53814 -4.28191,1.29191 -0.12832,-0.69226 -0.85111,-1.29191 -1.73322,-1.29191 z m 6.01513,3.43545 c 1.07156,0 2.14345,0.44073 2.96365,1.29191 0.72311,0.81531 1.22524,1.95361 1.22524,3.17913 0,1.23066 -0.50213,2.42568 -1.22524,3.15381 -0.8202,0.88196 -1.89209,1.32292 -2.96365,1.32292 -1.16417,0 -2.20499,-0.44096 -2.98948,-1.32292 -0.82047,-0.72813 -1.23093,-1.92315 -1.23093,-3.15381 0,-1.22552 0.41046,-2.36382 1.23093,-3.17913 0.78449,-0.85118 1.82531,-1.29191 2.98948,-1.29191 z" />
        <path
           id="path2307"
           style="fill:#f47721;fill-opacity:1;stroke-width:0.264583"
           d="m 190.32854,109.56577 c -4.31236,0 -7.65559,3.59436 -7.68636,7.87601 0.0308,4.28675 3.374,7.84575 7.68636,7.87652 2.24075,0 4.09716,-0.66162 5.64048,-2.07688 0.7231,-0.66148 0.41037,-1.61005 0,-2.05103 -0.41011,-0.50253 -1.70274,-0.60019 -2.3642,0.0971 -0.78449,0.59481 -2.13779,0.88238 -3.27628,0.78496 -1.10241,-0.0923 -2.35901,-0.66163 -3.02049,-1.41542 -0.56917,-0.5384 -0.91742,-1.35391 -1.07125,-2.08204 h 10.01385 c 0.88214,0 1.54388,-0.50248 1.64125,-1.25625 0.0307,-0.0666 0.0305,-0.22014 0.0305,-0.28681 v -0.15399 c -0.25109,-4.25597 -3.49678,-7.31222 -7.59385,-7.31222 z m 0,2.99465 c 2.74347,0.22047 4.34862,2.07687 4.66638,3.3383 h -8.91729 c 0.25128,-1.2922 1.57427,-3.21524 4.25091,-3.3383 z" />
        <path
           id="path2325"
           style="fill:#302216;fill-opacity:1;stroke-width:0.264583"
           d="m 280.10956,109.56395 c -4.31246,0 -7.65591,3.59435 -7.68688,7.876 0.031,4.28678 3.37442,7.84524 7.68688,7.87601 2.24074,0 4.09638,-0.66113 5.63996,-2.07636 0.72285,-0.66148 0.41011,-1.61057 0,-2.05156 -0.41037,-0.5025 -1.70223,-0.59967 -2.36368,0.0977 -0.78476,0.59481 -2.13806,0.8819 -3.27628,0.78445 -1.10253,-0.0923 -2.35876,-0.66165 -3.02049,-1.41542 -0.56912,-0.53842 -0.91805,-1.35339 -1.07177,-2.08152 h 10.01437 c 0.88186,0 1.54336,-0.50249 1.64073,-1.25626 0.031,-0.0667 0.031,-0.22067 0.031,-0.28732 v -0.15399 c -0.25136,-4.256 -3.49706,-7.3117 -7.59385,-7.3117 z m 0,2.99413 c 2.7432,0.22047 4.34783,2.0769 4.66586,3.3383 h -8.91728 c 0.25134,-1.29217 1.57462,-3.21525 4.25142,-3.3383 z" />
        <path
           style="fill:#302216;fill-opacity:1;stroke-width:0.264583"
           d="m 337.45146,116.42192 c 0.0307,-1.86135 1.51263,-3.37401 3.37397,-3.40478 1.88701,0.0308 3.39963,1.54343 3.39963,3.40478 v 7.11726 c 0,0.97941 0.75883,1.73318 1.73329,1.73318 0.97419,0 1.73302,-0.75377 1.73302,-1.73318 v -7.11726 c 0,-3.78425 -3.05594,-6.90189 -6.86594,-6.90189 -1.23058,0 -2.36379,0.37947 -3.37397,0.91274 v -5.48154 c 0,-0.97425 -0.78449,-1.72802 -1.76397,-1.72802 -0.94351,0 -1.73329,0.75377 -1.73329,1.72802 v 18.58795 c 0,0.15896 0.031,0.31793 0.0667,0.44098 0.22066,0.723 0.88212,1.2922 1.66661,1.2922 0.97948,0 1.76397,-0.75377 1.76397,-1.73318 v -7.11726"
           id="path2337" />
        <path
           style="fill:#302216;fill-opacity:1;stroke-width:0.264583"
           d="m 326.0884,125.33528 c 1.88675,0 3.65072,-0.69226 5.00962,-1.67164 0.72311,-0.62558 0.84614,-1.63573 0.3437,-2.32799 -0.63077,-0.7589 -1.66661,-0.88196 -2.36405,-0.34866 -0.81519,0.59994 -1.85606,1.01015 -2.98927,1.01015 -2.55376,0 -4.66116,-2.08185 -4.66116,-4.50726 0,-2.42541 2.1074,-4.53288 4.66116,-4.53288 1.16391,0 2.17408,0.40506 2.98927,1.00501 0.72813,0.56917 1.73328,0.44098 2.36405,-0.31279 0.50244,-0.69222 0.37941,-1.76392 -0.3437,-2.33309 -1.3589,-1.04092 -3.12287,-1.73318 -5.00962,-1.73318 -4.34842,0.0308 -8.00444,3.52787 -8.00444,7.90693 0,4.31753 3.65602,7.8454 8.00444,7.8454"
           id="path2335" />
        <path
           style="fill:#302216;fill-opacity:1;stroke-width:0.264583"
           d="m 316.16944,109.79078 c -1.57427,-0.0308 -2.92788,0.5384 -3.96875,1.23066 -0.22066,0.15896 -0.47175,0.41021 -0.66146,0.63071 v -0.2205 c 0,-0.91274 -0.78978,-1.64087 -1.73329,-1.64087 -0.91281,0 -1.67163,0.72813 -1.67163,1.64087 v 12.40905 c 0,0.91787 0.75882,1.67164 1.67163,1.67164 0.94351,0 1.73329,-0.75377 1.73329,-1.67164 v -5.98405 c 0.15875,-0.44098 0.53314,-1.63574 1.29223,-2.64589 0.37412,-0.59994 0.85116,-1.13324 1.44594,-1.51268 0.53843,-0.41021 1.1692,-0.59993 1.89204,-0.59993 0.9435,0 1.67164,-0.78454 1.67164,-1.6665 0,-0.91274 -0.72814,-1.64087 -1.67164,-1.64087"
           id="path2333" />
        <path
           id="path2329"
           style="fill:#302216;fill-opacity:1;stroke-width:0.264583"
           d="m 297.36276,109.58204 c -2.14339,0 -3.99955,0.91255 -5.35316,2.36368 -1.3589,1.41525 -2.14353,3.36917 -2.14353,5.54333 0,2.14336 0.78463,4.09682 2.14353,5.54798 1.35361,1.41523 3.20977,2.29753 5.35316,2.29753 1.57401,0 2.99482,-0.50271 4.18941,-1.35392 0.18971,0.75379 0.82012,1.35392 1.63556,1.35392 0.91784,0 1.67173,-0.75389 1.67173,-1.67173 v -6.17378 -6.20479 c 0,-0.94351 -0.75389,-1.70222 -1.67173,-1.70222 -0.81544,0 -1.44585,0.59989 -1.63556,1.38957 -1.19459,-0.85122 -2.6154,-1.38957 -4.18941,-1.38957 z m 0,3.37395 c 1.10225,0 2.1742,0.4412 2.92799,1.28726 0.75883,0.78968 1.23042,1.92283 1.23042,3.2458 0,1.29217 -0.47159,2.42534 -1.23042,3.24579 -0.75379,0.78967 -1.82574,1.23042 -2.92799,1.23042 -1.13322,0 -2.20487,-0.44075 -2.92798,-1.23042 -0.75882,-0.82045 -1.19993,-1.95362 -1.19993,-3.24579 0,-1.32297 0.44111,-2.45612 1.19993,-3.2458 0.72311,-0.84606 1.79476,-1.28726 2.92798,-1.28726 z" />
        <path
           style="fill:#302216;fill-opacity:1;stroke-width:0.264583"
           d="m 254.0574,121.737 c 1.79467,1.41523 4.66117,3.11764 8.06583,3.14841 2.23572,0 4.28175,-0.66149 5.82506,-1.7947 1.57427,-1.13324 2.71251,-2.86639 2.71251,-4.88672 0,-0.97425 -0.28707,-1.91775 -0.75882,-2.67666 -0.72285,-1.16398 -1.85632,-1.98443 -3.14828,-2.61513 -1.26153,-0.59481 -2.74347,-1.00502 -4.34843,-1.32294 h -0.0614 c -1.7026,-0.31279 -3.12288,-0.81532 -3.93832,-1.38449 -0.41011,-0.28202 -0.69215,-0.56917 -0.85117,-0.82042 -0.15875,-0.25127 -0.2204,-0.50252 -0.2204,-0.88196 0,-0.66149 0.34343,-1.35374 1.19486,-1.98443 0.85117,-0.63071 2.11243,-1.07169 3.52769,-1.07169 1.92299,0 3.46631,0.94861 5.07127,2.01517 0.75909,0.50766 1.76927,0.28715 2.24102,-0.47173 0.50244,-0.72302 0.28205,-1.73318 -0.44106,-2.23569 -1.61025,-1.04092 -3.84572,-2.5177 -6.87123,-2.5177 -2.04576,0 -3.96875,0.59481 -5.44565,1.6665 -1.45098,1.07169 -2.52281,2.71256 -2.52281,4.59957 0,0.94861 0.25136,1.83057 0.72311,2.58434 0.69744,1.10247 1.73302,1.89215 2.93291,2.45617 1.19486,0.56918 2.57942,0.94351 4.06135,1.23066 h 0.0667 c 1.85605,0.34356 3.39963,0.88196 4.31218,1.48191 0.47175,0.31279 0.75908,0.62558 0.9435,0.9435 0.18971,0.31279 0.28734,0.59994 0.28734,1.00502 0,0.78967 -0.41037,1.57935 -1.35388,2.27158 -0.94853,0.69223 -2.36378,1.16398 -3.93805,1.16398 -2.24076,0.0308 -4.63021,-1.29217 -6.0198,-2.42541 -0.69242,-0.56917 -1.73329,-0.47172 -2.29738,0.22051 -0.53843,0.69222 -0.4408,1.73315 0.25135,2.30235"
           id="path2323" />
        <path
           id="path2319"
           style="fill:#f47721;fill-opacity:1;stroke-width:0.264583"
           d="m 233.6246,109.16321 c -2.14339,0 -3.99955,0.91255 -5.35316,2.36368 -1.3589,1.41526 -2.14354,3.36917 -2.14354,5.54333 0,2.14336 0.78464,4.09683 2.14354,5.54799 1.35361,1.41523 3.20977,2.29701 5.35316,2.29701 1.57427,0 2.99455,-0.50221 4.18941,-1.3534 0.1897,0.75377 0.82038,1.3534 1.63556,1.3534 0.91784,0 1.67173,-0.75334 1.67173,-1.67121 v -6.17379 -6.20479 c 0,-0.94351 -0.75389,-1.70222 -1.67173,-1.70222 -0.81518,0 -1.44586,0.5999 -1.63556,1.38958 -1.19486,-0.85122 -2.61514,-1.38958 -4.18941,-1.38958 z m 0,3.37396 c 1.10252,0 2.17419,0.4407 2.92799,1.28674 0.75883,0.78968 1.23041,1.92334 1.23041,3.24631 0,1.29217 -0.47158,2.42538 -1.23041,3.2458 -0.7538,0.78967 -1.82547,1.23041 -2.92799,1.23041 -1.13321,0 -2.20514,-0.44074 -2.92799,-1.23041 -0.75909,-0.82042 -1.19992,-1.95363 -1.19992,-3.2458 0,-1.32297 0.44083,-2.45663 1.19992,-3.24631 0.72285,-0.84604 1.79478,-1.28674 2.92799,-1.28674 z" />
        <path
           style="fill:#f47721;fill-opacity:1;stroke-width:0.264583"
           d="m 223.45749,104.54205 c 0,-0.9435 -0.72284,-1.69727 -1.70233,-1.69727 -0.9435,0 -1.70233,0.75377 -1.70233,1.69727 v 0.66147 c 0,0.94864 0.75883,1.73318 1.70233,1.73318 0.97949,0 1.70233,-0.78454 1.70233,-1.73318 v -0.66147"
           id="path2317" />
        <path
           style="fill:#f47721;fill-opacity:1;stroke-width:0.264583"
           d="m 221.75516,109.17237 c -0.9435,0 -1.70233,0.72814 -1.70233,1.73316 v 12.28599 c 0,0.94862 0.75883,1.70241 1.70233,1.70241 0.97949,0 1.70233,-0.75379 1.70233,-1.70241 v -12.28599 c 0,-1.00502 -0.72284,-1.73316 -1.70233,-1.73316"
           id="path2315" />
        <path
           style="fill:#f47721;fill-opacity:1;stroke-width:0.264583"
           d="m 163.50079,121.81393 c 1.7947,1.41526 4.66108,3.11764 8.06588,3.14841 2.2357,0 4.28164,-0.66145 5.82509,-1.79469 1.57419,-1.13321 2.71256,-2.86639 2.71256,-4.8867 0,-0.97427 -0.28715,-1.91778 -0.7589,-2.67668 -0.72301,-1.16398 -1.85624,-1.9844 -3.14841,-2.61511 -1.26143,-0.59481 -2.74334,-1.00504 -4.3483,-1.32294 h -0.0615 c -1.70241,-0.31279 -3.12277,-0.81531 -3.93809,-1.38448 -0.41021,-0.28205 -0.69223,-0.5692 -0.85119,-0.82045 -0.15896,-0.25125 -0.2205,-0.50252 -0.2205,-0.88196 0,-0.66149 0.34356,-1.35372 1.19475,-1.98443 0.85122,-0.63071 2.11262,-1.07169 3.52788,-1.07169 1.92288,0 3.46633,0.94863 5.07129,2.01519 0.75891,0.50763 1.76909,0.28716 2.24081,-0.47175 0.50252,-0.723 0.28205,-1.73315 -0.44098,-2.23568 -1.6101,-1.04092 -3.84577,-2.5177 -6.87112,-2.5177 -2.04595,0 -3.96886,0.59481 -5.44563,1.6665 -1.45114,1.07168 -2.52283,2.71255 -2.52283,4.59956 0,0.94863 0.25125,1.8306 0.723,2.58437 0.69737,1.10244 1.73318,1.89211 2.93304,2.45617 1.19478,0.56917 2.57926,0.94348 4.06117,1.23063 h 0.0666 c 1.85623,0.34356 3.39968,0.88196 4.31241,1.4819 0.47173,0.31279 0.75888,0.62558 0.94348,0.94351 0.18973,0.31279 0.28715,0.59994 0.28715,1.00504 0,0.78965 -0.41021,1.57933 -1.35371,2.27156 -0.94861,0.69225 -2.36387,1.16401 -3.93808,1.16401 -2.24081,0.0308 -4.63032,-1.2922 -6.01992,-2.42541 -0.69225,-0.56918 -1.73317,-0.47176 -2.29722,0.22047 -0.53841,0.69226 -0.44098,1.73318 0.25126,2.30235"
           id="shape0-4" />
        <path
           style="fill:#ffddc2;fill-opacity:1;fill-rule:evenodd;stroke:none;stroke-width:0.24056;stroke-linecap:butt;stroke-linejoin:miter;stroke-miterlimit:4;stroke-dasharray:none;stroke-opacity:1"
           d="m 177.42202,104.7564 c 0.38121,0.2213 0.67327,0.38265 0.86439,0.52657 0.29512,0.22223 -0.0349,0.78684 -0.51099,0.50492 -0.25918,-0.14335 -0.58262,-0.33132 -0.9074,-0.56097 -0.32476,-0.22966 0.17265,-0.69183 0.554,-0.47052 z"
           id="path867-4-9-8-6-6-7"
           inkscape:connector-curvature="0"
           sodipodi:nodetypes="csccc" />
        <path
           style="fill:#ffddc2;fill-opacity:1;fill-rule:evenodd;stroke:none;stroke-width:0.24056;stroke-linecap:butt;stroke-linejoin:miter;stroke-miterlimit:4;stroke-dasharray:none;stroke-opacity:1"
           d="m 176.62787,113.6466 c 0.38121,0.2213 0.67327,0.38265 0.86439,0.52657 0.29512,0.22223 -0.0349,0.78684 -0.51099,0.50492 -0.25918,-0.14334 -0.58262,-0.33132 -0.90739,-0.56097 -0.32477,-0.22965 0.17264,-0.69183 0.55399,-0.47052 z"
           id="path867-4-9-8-6-6-7-6"
           inkscape:connector-curvature="0"
           sodipodi:nodetypes="csccc" />
        <path
           style="fill:#ffddc2;fill-opacity:1;fill-rule:evenodd;stroke:none;stroke-width:0.24056;stroke-linecap:butt;stroke-linejoin:miter;stroke-miterlimit:4;stroke-dasharray:none;stroke-opacity:1"
           d="m 165.67379,119.9362 c 0.3812,0.2213 0.67327,0.38265 0.86439,0.52657 0.29512,0.22223 -0.0349,0.78684 -0.51099,0.50492 -0.25919,-0.14334 -0.58262,-0.33132 -0.9074,-0.56097 -0.32476,-0.22965 0.17265,-0.69183 0.554,-0.47052 z"
           id="path867-4-9-8-6-6-7-6-5"
           inkscape:connector-curvature="0"
           sodipodi:nodetypes="csccc" />
        <path
           style="fill:#ffddc2;fill-opacity:1;fill-rule:evenodd;stroke:none;stroke-width:0.24056;stroke-linecap:butt;stroke-linejoin:miter;stroke-miterlimit:4;stroke-dasharray:none;stroke-opacity:1"
           d="m 193.92878,110.93118 c 0.38121,0.2213 0.67327,0.38265 0.8644,0.52657 0.29511,0.22223 -0.0349,0.78684 -0.511,0.50492 -0.25918,-0.14334 -0.58262,-0.33132 -0.90739,-0.56097 -0.32477,-0.22965 0.17264,-0.69183 0.55399,-0.47052 z"
           id="path867-4-9-8-6-6-7-6-5-6"
           inkscape:connector-curvature="0"
           sodipodi:nodetypes="csccc" />
        <path
           style="fill:#ffddc2;fill-opacity:1;fill-rule:evenodd;stroke:none;stroke-width:0.186563;stroke-linecap:butt;stroke-linejoin:miter;stroke-miterlimit:4;stroke-dasharray:none;stroke-opacity:1"
           d="m 194.9896,121.08161 c 0.3046,0.16658 0.53796,0.28803 0.69068,0.39636 0.23581,0.16728 -0.0279,0.59228 -0.4083,0.38007 -0.2071,-0.1079 -0.46554,-0.24939 -0.72504,-0.42226 -0.2595,-0.17286 0.13795,-0.52076 0.44266,-0.35417 z"
           id="path867-4-9-8-6-6-7-6-5-6-9"
           inkscape:connector-curvature="0"
           sodipodi:nodetypes="csccc" />
        <path
           style="fill:#ffddc2;fill-opacity:1;fill-rule:evenodd;stroke:none;stroke-width:0.186563;stroke-linecap:butt;stroke-linejoin:miter;stroke-miterlimit:4;stroke-dasharray:none;stroke-opacity:1"
           d="m 202.86363,109.54775 c 0.3046,0.16658 0.53797,0.28803 0.69068,0.39636 0.23581,0.16728 -0.0279,0.59228 -0.4083,0.38007 -0.20709,-0.1079 -0.46553,-0.24939 -0.72504,-0.42226 -0.2595,-0.17286 0.13795,-0.52076 0.44266,-0.35417 z"
           id="path867-4-9-8-6-6-7-6-5-6-9-3"
           inkscape:connector-curvature="0"
           sodipodi:nodetypes="csccc" />
        <path
           style="fill:#ffddc2;fill-opacity:1;fill-rule:evenodd;stroke:none;stroke-width:0.24056;stroke-linecap:butt;stroke-linejoin:miter;stroke-miterlimit:4;stroke-dasharray:none;stroke-opacity:1"
           d="m 211.46261,110.33277 c 0.3812,0.2213 0.67326,0.38265 0.86439,0.52657 0.29511,0.22223 -0.0349,0.78684 -0.51099,0.50492 -0.25919,-0.14334 -0.58262,-0.33132 -0.9074,-0.56097 -0.32476,-0.22965 0.17265,-0.69183 0.554,-0.47052 z"
           id="path867-4-9-8-6-6-7-6-5-6-7"
           inkscape:connector-curvature="0"
           sodipodi:nodetypes="csccc" />
        <path
           style="fill:#ffddc2;fill-opacity:1;fill-rule:evenodd;stroke:none;stroke-width:0.24056;stroke-linecap:butt;stroke-linejoin:miter;stroke-miterlimit:4;stroke-dasharray:none;stroke-opacity:1"
           d="m 205.98993,121.1418 c 0.38121,0.2213 0.67327,0.38265 0.86439,0.52657 0.29512,0.22223 -0.0349,0.78684 -0.51099,0.50492 -0.25918,-0.14334 -0.58262,-0.33132 -0.90739,-0.56097 -0.32477,-0.22965 0.17264,-0.69183 0.55399,-0.47052 z"
           id="path867-4-9-8-6-6-7-6-5-6-7-4"
           inkscape:connector-curvature="0"
           sodipodi:nodetypes="csccc" />
        <path
           style="fill:#ffddc2;fill-opacity:1;fill-rule:evenodd;stroke:none;stroke-width:0.186563;stroke-linecap:butt;stroke-linejoin:miter;stroke-miterlimit:4;stroke-dasharray:none;stroke-opacity:1"
           d="m 222.06615,103.28107 c 0.3046,0.16658 0.53796,0.28803 0.69068,0.39636 0.23581,0.16728 -0.0279,0.59228 -0.4083,0.38007 -0.2071,-0.1079 -0.46554,-0.24939 -0.72504,-0.42226 -0.2595,-0.17286 0.13795,-0.52076 0.44266,-0.35417 z"
           id="path867-4-9-8-6-6-7-6-5-6-9-3-5"
           inkscape:connector-curvature="0"
           sodipodi:nodetypes="csccc" />
        <path
           style="fill:#ffddc2;fill-opacity:1;fill-rule:evenodd;stroke:none;stroke-width:0.186563;stroke-linecap:butt;stroke-linejoin:miter;stroke-miterlimit:4;stroke-dasharray:none;stroke-opacity:1"
           d="m 222.03999,109.76164 c 0.30459,0.16658 0.53796,0.28803 0.69068,0.39636 0.2358,0.16728 -0.0279,0.59228 -0.40831,0.38007 -0.20709,-0.1079 -0.46553,-0.24939 -0.72504,-0.42226 -0.25949,-0.17286 0.13795,-0.52076 0.44267,-0.35417 z"
           id="path867-4-9-8-6-6-7-6-5-6-9-3-5-2"
           inkscape:connector-curvature="0"
           sodipodi:nodetypes="csccc" />
        <path
           style="fill:#ffddc2;fill-opacity:1;fill-rule:evenodd;stroke:none;stroke-width:0.24056;stroke-linecap:butt;stroke-linejoin:miter;stroke-miterlimit:4;stroke-dasharray:none;stroke-opacity:1"
           d="m 235.87618,109.96736 c 0.38121,0.2213 0.67327,0.38265 0.86439,0.52657 0.29512,0.22223 -0.0349,0.78684 -0.51099,0.50492 -0.25918,-0.14334 -0.58262,-0.33132 -0.9074,-0.56097 -0.32476,-0.22965 0.17265,-0.69183 0.554,-0.47052 z"
           id="path867-4-9-8-6-6-7-6-5-6-7-4-5"
           inkscape:connector-curvature="0"
           sodipodi:nodetypes="csccc" />
        <path
           style="fill:#ffddc2;fill-opacity:1;fill-rule:evenodd;stroke:none;stroke-width:0.24056;stroke-linecap:butt;stroke-linejoin:miter;stroke-miterlimit:4;stroke-dasharray:none;stroke-opacity:1"
           d="m 230.99819,121.092 c 0.3812,0.2213 0.67327,0.38265 0.86439,0.52657 0.29511,0.22223 -0.0349,0.78684 -0.51099,0.50492 -0.25919,-0.14334 -0.58262,-0.33132 -0.9074,-0.56097 -0.32476,-0.22965 0.17265,-0.69183 0.554,-0.47052 z"
           id="path867-4-9-8-6-6-7-6-5-6-7-4-5-4"
           inkscape:connector-curvature="0"
           sodipodi:nodetypes="csccc" />
        <path
           style="fill:#ffddc2;fill-opacity:1;fill-rule:evenodd;stroke:none;stroke-width:0.186563;stroke-linecap:butt;stroke-linejoin:miter;stroke-miterlimit:4;stroke-dasharray:none;stroke-opacity:1"
           d="m 239.61908,109.68104 c 0.3046,0.16658 0.53797,0.28803 0.69068,0.39636 0.23581,0.16728 -0.0279,0.59228 -0.4083,0.38007 -0.2071,-0.1079 -0.46553,-0.24939 -0.72504,-0.42226 -0.2595,-0.17286 0.13795,-0.52076 0.44266,-0.35417 z"
           id="path867-4-9-8-6-6-7-6-5-6-9-3-5-2-7"
           inkscape:connector-curvature="0"
           sodipodi:nodetypes="csccc" />
        <path
           style="fill:#c2c2c2;fill-opacity:1;fill-rule:evenodd;stroke:none;stroke-width:0.24056;stroke-linecap:butt;stroke-linejoin:miter;stroke-miterlimit:4;stroke-dasharray:none;stroke-opacity:1"
           d="m 264.97831,103.1105 c 0.3812,0.2213 0.67327,0.38265 0.86439,0.52657 0.29511,0.22223 -0.0349,0.78684 -0.51099,0.50492 -0.25919,-0.14334 -0.58262,-0.33132 -0.9074,-0.56097 -0.32476,-0.22965 0.17265,-0.69183 0.554,-0.47052 z"
           id="path867-4-9-8-6-6-7-6-5-6-7-4-5-44"
           inkscape:connector-curvature="0"
           sodipodi:nodetypes="csccc" />
        <path
           style="fill:#c2c2c2;fill-opacity:1;fill-rule:evenodd;stroke:none;stroke-width:0.24056;stroke-linecap:butt;stroke-linejoin:miter;stroke-miterlimit:4;stroke-dasharray:none;stroke-opacity:1"
           d="m 266.14908,112.93358 c 0.3812,0.2213 0.67327,0.38265 0.86439,0.52657 0.29511,0.22223 -0.0349,0.78684 -0.51099,0.50492 -0.25919,-0.14334 -0.58262,-0.33132 -0.9074,-0.56097 -0.32476,-0.22965 0.17265,-0.69183 0.554,-0.47052 z"
           id="path867-4-9-8-6-6-7-6-5-6-7-4-5-44-3"
           inkscape:connector-curvature="0"
           sodipodi:nodetypes="csccc" />
        <path
           style="fill:#c2c2c2;fill-opacity:1;fill-rule:evenodd;stroke:none;stroke-width:0.24056;stroke-linecap:butt;stroke-linejoin:miter;stroke-miterlimit:4;stroke-dasharray:none;stroke-opacity:1"
           d="m 258.38113,121.00793 c 0.3812,0.2213 0.67327,0.38265 0.86439,0.52657 0.29511,0.22223 -0.0349,0.78684 -0.51099,0.50492 -0.25919,-0.14334 -0.58262,-0.33132 -0.9074,-0.56097 -0.32476,-0.22965 0.17265,-0.69183 0.554,-0.47052 z"
           id="path867-4-9-8-6-6-7-6-5-6-7-4-5-44-3-0"
           inkscape:connector-curvature="0"
           sodipodi:nodetypes="csccc" />
        <path
           style="fill:#c2c2c2;fill-opacity:1;fill-rule:evenodd;stroke:none;stroke-width:0.24056;stroke-linecap:butt;stroke-linejoin:miter;stroke-miterlimit:4;stroke-dasharray:none;stroke-opacity:1"
           d="m 283.7103,111.132 c 0.38121,0.2213 0.67327,0.38265 0.8644,0.52657 0.29511,0.22223 -0.0349,0.78684 -0.511,0.50492 -0.25918,-0.14334 -0.58261,-0.33132 -0.90739,-0.56097 -0.32476,-0.22965 0.17264,-0.69183 0.55399,-0.47052 z"
           id="path867-4-9-8-6-6-7-6-5-6-78"
           inkscape:connector-curvature="0"
           sodipodi:nodetypes="csccc" />
        <path
           style="fill:#c2c2c2;fill-opacity:1;fill-rule:evenodd;stroke:none;stroke-width:0.186563;stroke-linecap:butt;stroke-linejoin:miter;stroke-miterlimit:4;stroke-dasharray:none;stroke-opacity:1"
           d="m 284.77112,121.28243 c 0.3046,0.16658 0.53797,0.28803 0.69068,0.39636 0.23581,0.16728 -0.0279,0.59228 -0.4083,0.38007 -0.2071,-0.1079 -0.46554,-0.24939 -0.72504,-0.42226 -0.2595,-0.17286 0.13795,-0.52076 0.44266,-0.35417 z"
           id="path867-4-9-8-6-6-7-6-5-6-9-6"
           inkscape:connector-curvature="0"
           sodipodi:nodetypes="csccc" />
        <path
           style="fill:#c2c2c2;fill-opacity:1;fill-rule:evenodd;stroke:none;stroke-width:0.24056;stroke-linecap:butt;stroke-linejoin:miter;stroke-miterlimit:4;stroke-dasharray:none;stroke-opacity:1"
           d="m 299.48983,110.57116 c 0.38121,0.2213 0.67327,0.38265 0.86439,0.52657 0.29512,0.22223 -0.0349,0.78684 -0.51099,0.50492 -0.25918,-0.14334 -0.58262,-0.33132 -0.90739,-0.56097 -0.32477,-0.22965 0.17264,-0.69183 0.55399,-0.47052 z"
           id="path867-4-9-8-6-6-7-6-5-6-7-4-5-8"
           inkscape:connector-curvature="0"
           sodipodi:nodetypes="csccc" />
        <path
           style="fill:#c2c2c2;fill-opacity:1;fill-rule:evenodd;stroke:none;stroke-width:0.24056;stroke-linecap:butt;stroke-linejoin:miter;stroke-miterlimit:4;stroke-dasharray:none;stroke-opacity:1"
           d="m 294.61184,121.6958 c 0.38121,0.2213 0.67327,0.38265 0.86439,0.52657 0.29512,0.22223 -0.0349,0.78684 -0.51099,0.50492 -0.25918,-0.14334 -0.58262,-0.33132 -0.9074,-0.56097 -0.32476,-0.22965 0.17265,-0.69183 0.554,-0.47052 z"
           id="path867-4-9-8-6-6-7-6-5-6-7-4-5-4-8"
           inkscape:connector-curvature="0"
           sodipodi:nodetypes="csccc" />
        <path
           style="fill:#c2c2c2;fill-opacity:1;fill-rule:evenodd;stroke:none;stroke-width:0.186563;stroke-linecap:butt;stroke-linejoin:miter;stroke-miterlimit:4;stroke-dasharray:none;stroke-opacity:1"
           d="m 303.23273,110.28484 c 0.3046,0.16658 0.53797,0.28803 0.69068,0.39636 0.23581,0.16728 -0.0279,0.59228 -0.4083,0.38007 -0.2071,-0.1079 -0.46553,-0.24939 -0.72504,-0.42226 -0.2595,-0.17286 0.13795,-0.52076 0.44266,-0.35417 z"
           id="path867-4-9-8-6-6-7-6-5-6-9-3-5-2-7-4"
           inkscape:connector-curvature="0"
           sodipodi:nodetypes="csccc" />
        <path
           style="fill:#c2c2c2;fill-opacity:1;fill-rule:evenodd;stroke:none;stroke-width:0.186563;stroke-linecap:butt;stroke-linejoin:miter;stroke-miterlimit:4;stroke-dasharray:none;stroke-opacity:1"
           d="m 310.05466,110.3797 c 0.3046,0.16658 0.53797,0.28803 0.69068,0.39636 0.23581,0.16728 -0.0279,0.59228 -0.4083,0.38007 -0.2071,-0.1079 -0.46553,-0.24939 -0.72504,-0.42226 -0.2595,-0.17286 0.13795,-0.52076 0.44266,-0.35417 z"
           id="path867-4-9-8-6-6-7-6-5-6-9-3-5-2-7-4-3"
           inkscape:connector-curvature="0"
           sodipodi:nodetypes="csccc" />
        <path
           style="fill:#c2c2c2;fill-opacity:1;fill-rule:evenodd;stroke:none;stroke-width:0.24056;stroke-linecap:butt;stroke-linejoin:miter;stroke-miterlimit:4;stroke-dasharray:none;stroke-opacity:1"
           d="m 316.22987,110.33155 c 0.38121,0.2213 0.67327,0.38265 0.86439,0.52657 0.29512,0.22223 -0.0349,0.78684 -0.51099,0.50492 -0.25918,-0.14334 -0.58262,-0.33132 -0.90739,-0.56097 -0.32477,-0.22965 0.17264,-0.69183 0.55399,-0.47052 z"
           id="path867-4-9-8-6-6-7-6-5-6-7-4-5-8-1"
           inkscape:connector-curvature="0"
           sodipodi:nodetypes="csccc" />
        <path
           style="fill:#c2c2c2;fill-opacity:1;fill-rule:evenodd;stroke:none;stroke-width:0.24056;stroke-linecap:butt;stroke-linejoin:miter;stroke-miterlimit:4;stroke-dasharray:none;stroke-opacity:1"
           d="m 329.08037,110.67947 c 0.38121,0.2213 0.67327,0.38265 0.86439,0.52657 0.29512,0.22223 -0.0349,0.78684 -0.51099,0.50492 -0.25918,-0.14334 -0.58262,-0.33132 -0.90739,-0.56097 -0.32477,-0.22965 0.17264,-0.69183 0.55399,-0.47052 z"
           id="path867-4-9-8-6-6-7-6-5-6-7-4-5-8-1-4"
           inkscape:connector-curvature="0"
           sodipodi:nodetypes="csccc" />
        <path
           style="fill:#c2c2c2;fill-opacity:1;fill-rule:evenodd;stroke:none;stroke-width:0.24056;stroke-linecap:butt;stroke-linejoin:miter;stroke-miterlimit:4;stroke-dasharray:none;stroke-opacity:1"
           d="m 323.52738,121.63829 c 0.38121,0.2213 0.67327,0.38265 0.86439,0.52657 0.29512,0.22223 -0.0349,0.78684 -0.51099,0.50492 -0.25918,-0.14334 -0.58262,-0.33132 -0.90739,-0.56097 -0.32477,-0.22965 0.17264,-0.69183 0.55399,-0.47052 z"
           id="path867-4-9-8-6-6-7-6-5-6-7-4-5-8-1-4-9"
           inkscape:connector-curvature="0"
           sodipodi:nodetypes="csccc" />
        <path
           style="fill:#c2c2c2;fill-opacity:1;fill-rule:evenodd;stroke:none;stroke-width:0.24056;stroke-linecap:butt;stroke-linejoin:miter;stroke-miterlimit:4;stroke-dasharray:none;stroke-opacity:1"
           d="m 343.34353,110.42805 c 0.38121,0.2213 0.67327,0.38265 0.86439,0.52657 0.29512,0.22223 -0.0349,0.78684 -0.51099,0.50492 -0.25918,-0.14334 -0.58262,-0.33132 -0.90739,-0.56097 -0.32477,-0.22965 0.17264,-0.69183 0.55399,-0.47052 z"
           id="path867-4-9-8-6-6-7-6-5-6-7-4-5-8-1-4-9-2"
           inkscape:connector-curvature="0"
           sodipodi:nodetypes="csccc" />
        <path
           style="fill:#c2c2c2;fill-opacity:1;fill-rule:evenodd;stroke:none;stroke-width:0.186563;stroke-linecap:butt;stroke-linejoin:miter;stroke-miterlimit:4;stroke-dasharray:none;stroke-opacity:1"
           d="m 335.97382,103.80416 c 0.3046,0.16658 0.53797,0.28803 0.69068,0.39636 0.23581,0.16728 -0.0279,0.59228 -0.4083,0.38007 -0.2071,-0.1079 -0.46553,-0.24939 -0.72504,-0.42226 -0.2595,-0.17286 0.13795,-0.52076 0.44266,-0.35417 z"
           id="path867-4-9-8-6-6-7-6-5-6-9-3-5-2-7-4-3-0"
           inkscape:connector-curvature="0"
           sodipodi:nodetypes="csccc" />
      </g>
    </g>
  </g>
</svg>
