<?xml version="1.0" encoding="UTF-8"?>
<svg width="520px" height="100px" viewBox="0 0 520 100" version="1.1" xmlns="http://www.w3.org/2000/svg" xmlns:xlink="http://www.w3.org/1999/xlink">
    <title>Peertube_V3_logo Copy</title>
    <g id="Peertube_V3_logo-Copy" stroke="none" stroke-width="1" fill="none" fill-rule="evenodd">
        <g id="Group">
            <path d="M102.165607,80.0076894 L107.52554,57.572536 L110.258054,57.572536 C115.162568,57.572536 119.646695,57.0561714 123.710435,56.0234421 C127.774175,54.9907128 131.277399,53.4060075 134.220107,51.2693262 C137.162816,49.132645 139.457427,46.4083764 141.103943,43.0965204 C142.750458,39.7846644 143.573716,35.8852211 143.573716,31.3981904 C143.573716,28.7629502 143.170845,26.3235724 142.365103,24.0800571 C141.559362,21.8365417 140.263169,19.8957229 138.476525,18.2576006 C136.68988,16.6194783 134.412785,15.3552752 131.645238,14.4649913 C128.877691,13.5747075 125.567144,13.1295656 121.713597,13.1295656 C119.471534,13.1295656 116.896664,13.2542053 113.988988,13.5034848 C111.081312,13.7527643 107.980959,14.1622948 104.687928,14.7320765 L104.687928,14.7320765 L89.2387097,80.0076894 L102.165607,80.0076894 Z M114.123582,47.2510573 L110.972712,47.2510573 L116.014104,24.3913387 C116.994375,24.2389406 117.799597,24.1436917 118.429772,24.1055922 C119.059946,24.0674927 119.865168,24.0484429 120.845439,24.0484429 C124.90656,24.0484429 127.672324,24.8866326 129.14273,26.563012 C130.613136,28.2393913 131.348339,30.5253632 131.348339,33.4209275 C131.348339,37.7642741 129.895438,41.1551323 126.989636,43.5935023 C124.083833,46.0318723 119.795149,47.2510573 114.123582,47.2510573 L114.123582,47.2510573 Z M163.12277,81.372549 C166.429061,81.372549 169.476036,81.0244269 172.263693,80.3281827 C175.05135,79.6319385 177.22313,78.8859626 178.779031,78.0902549 L178.779031,78.0902549 L178.00108,68.8401534 C176.898983,69.3706251 175.181009,69.9176741 172.847156,70.4813004 C170.513303,71.0449267 168.049792,71.3267398 165.456623,71.3267398 C163.252429,71.3267398 161.421003,71.1443901 159.962345,70.7796908 C158.503687,70.4149914 157.336761,69.9010969 156.461566,69.2380072 C155.586371,68.5749175 154.954286,67.7626326 154.565311,66.8011525 C154.176335,65.8396724 153.981847,64.7621516 153.981847,63.5685901 C158.455065,63.5685901 162.620343,63.2370452 166.477683,62.5739555 C170.335023,61.9108658 173.689936,60.8499223 176.542423,59.3911249 C179.394909,57.9323275 181.631518,56.0259446 183.252249,53.6719761 C184.87298,51.3180076 185.683345,48.4501445 185.683345,45.068387 C185.683345,41.0235397 184.257102,37.8738635 181.404616,35.6193585 C178.552129,33.3648534 174.889277,32.2376009 170.416059,32.2376009 C165.942842,32.2376009 161.972051,33.0664631 158.503687,34.7241874 C155.035323,36.3819117 152.085592,38.5701077 149.654496,41.2887756 C147.223399,44.0074434 145.375766,47.1736968 144.111596,50.7875358 C142.847426,54.4013747 142.215341,58.1312544 142.215341,61.9771748 C142.215341,64.8284606 142.604316,67.4310877 143.382267,69.7850562 C144.160218,72.1390247 145.391973,74.1780256 147.077533,75.9020588 C148.763094,77.6260921 150.934873,78.9688488 153.592872,79.9303289 C156.250871,80.891809 159.427503,81.372549 163.12277,81.372549 Z M153.082342,55.4402153 C154.127246,50.6838862 156.004807,47.2200377 158.715027,45.0486701 C161.425247,42.8773024 164.282406,41.7916186 167.286505,41.7916186 C169.2457,41.7916186 170.764076,42.2224455 171.841633,43.0840994 C172.91919,43.9457532 173.457969,45.1693016 173.457969,46.7547447 C173.457969,47.6508647 173.16409,48.615917 172.576331,49.6499016 C171.988573,50.6838862 170.943669,51.6317054 169.441619,52.4933592 C167.93957,53.355013 165.866089,54.0615692 163.221175,54.6130276 C160.576262,55.1644861 157.196651,55.4402153 153.082342,55.4402153 Z M209.307525,81.372549 C212.613816,81.372549 215.660791,81.0244269 218.448448,80.3281827 C221.236105,79.6319385 223.407885,78.8859626 224.963786,78.0902549 L224.963786,78.0902549 L224.185836,68.8401534 C223.083738,69.3706251 221.365764,69.9176741 219.031911,70.4813004 C216.698058,71.0449267 214.234547,71.3267398 211.641378,71.3267398 C209.437184,71.3267398 207.605758,71.1443901 206.1471,70.7796908 C204.688442,70.4149914 203.521516,69.9010969 202.646321,69.2380072 C201.771126,68.5749175 201.139041,67.7626326 200.750066,66.8011525 C200.36109,65.8396724 200.166602,64.7621516 200.166602,63.5685901 C204.63982,63.5685901 208.805099,63.2370452 212.662438,62.5739555 C216.519778,61.9108658 219.874691,60.8499223 222.727178,59.3911249 C225.579664,57.9323275 227.816273,56.0259446 229.437004,53.6719761 C231.057735,51.3180076 231.8681,48.4501445 231.8681,45.068387 C231.8681,41.0235397 230.441857,37.8738635 227.589371,35.6193585 C224.736884,33.3648534 221.074032,32.2376009 216.600815,32.2376009 C212.127597,32.2376009 208.156806,33.0664631 204.688442,34.7241874 C201.220078,36.3819117 198.270347,38.5701077 195.839251,41.2887756 C193.408154,44.0074434 191.560521,47.1736968 190.296351,50.7875358 C189.032181,54.4013747 188.400096,58.1312544 188.400096,61.9771748 C188.400096,64.8284606 188.789071,67.4310877 189.567022,69.7850562 C190.344973,72.1390247 191.576728,74.1780256 193.262289,75.9020588 C194.947849,77.6260921 197.119628,78.9688488 199.777627,79.9303289 C202.435626,80.891809 205.612259,81.372549 209.307525,81.372549 Z M200.625472,55.4402153 C201.670376,50.6838862 203.547938,47.2200377 206.258157,45.0486701 C208.968377,42.8773024 211.825536,41.7916186 214.829635,41.7916186 C216.78883,41.7916186 218.307206,42.2224455 219.384763,43.0840994 C220.462321,43.9457532 221.001099,45.1693016 221.001099,46.7547447 C221.001099,47.6508647 220.70722,48.615917 220.119461,49.6499016 C219.531703,50.6838862 218.486799,51.6317054 216.98475,52.4933592 C215.4827,53.355013 213.409219,54.0615692 210.764306,54.6130276 C208.119393,55.1644861 204.739781,55.4402153 200.625472,55.4402153 Z M246.775247,80.0076894 L255.001287,45.3020719 C256.520958,44.770185 258.189291,44.3878913 260.006288,44.1551908 C261.823285,43.9224903 263.590727,43.8061401 265.308615,43.8061401 C267.819374,43.8061401 269.933698,43.9391118 271.651585,44.2050552 C273.369473,44.4709987 274.856107,44.8366709 276.111487,45.3020719 L276.111487,45.3020719 L280.769606,34.0327191 C278.787427,33.5008322 276.623549,33.0686741 274.277972,32.7362449 C271.932394,32.4038156 268.909572,32.2376009 265.209506,32.2376009 C262.038021,32.2376009 258.651799,32.5866517 255.050842,33.2847532 C251.449885,33.9828547 248.0967,34.9635211 244.991287,36.2267524 L244.991287,36.2267524 L234.584851,80.0076894 L246.775247,80.0076894 Z M303.887422,80.0076894 L303.887422,23.1197106 L324.237611,23.1197106 L324.237611,13.1295656 L271.26098,13.1295656 L271.26098,23.1197106 L291.611168,23.1197106 L291.611168,80.0076894 L303.887422,80.0076894 Z M338.645706,81.372549 C342.322996,81.372549 345.726102,81.0746067 348.855024,80.478722 C351.983946,79.8828373 354.645143,79.2869526 356.838614,78.691068 L356.838614,78.691068 L356.838614,33.6024606 L344.839036,33.6024606 L344.839036,70.2493683 C343.032648,70.5804154 341.22626,70.7459389 339.419872,70.7459389 C336.516748,70.7459389 334.565204,69.7031407 333.565239,67.6175443 C332.565275,65.531948 332.065292,62.337344 332.065292,58.0337324 L332.065292,58.0337324 L332.065292,33.6024606 L320.162485,33.6024606 L320.162485,59.6227582 C320.162485,62.8008099 320.420541,65.7140238 320.936651,68.3624002 C321.452762,71.0107765 322.404342,73.3115535 323.79139,75.2647311 C325.178438,77.2179086 327.065468,78.7241727 329.452481,79.7835232 C331.839494,80.8428737 334.903902,81.372549 338.645706,81.372549 Z M384.525496,81.372549 C388.121195,81.372549 391.317372,80.7965976 394.114026,79.6446948 C396.910681,78.4927919 399.27452,76.8636722 401.205544,74.7573356 C403.136567,72.6509989 404.601481,70.1003569 405.600287,67.1054095 C406.599092,64.1104622 407.098495,60.7699439 407.098495,57.0838548 C407.098495,53.4635887 406.698973,50.1724378 405.899928,47.2104019 C405.100884,44.248366 403.918965,41.697724 402.35417,39.5584759 C400.789375,37.4192277 398.841705,35.7736523 396.511159,34.6217494 C394.180613,33.4698466 391.483839,32.8938951 388.420836,32.8938951 C386.822748,32.8938951 385.224659,33.0419969 383.626571,33.3382005 C382.028483,33.6344041 380.363807,34.177444 378.632545,34.9673203 L378.632545,34.9673203 L378.632545,11.7647059 L366.34724,13.838131 L366.34724,78.9041858 C368.611199,79.628239 371.407853,80.2206462 374.737204,80.6814073 C378.066555,81.1421685 381.329319,81.372549 384.525496,81.372549 Z M384.277792,70.4536717 C383.530686,70.4536717 382.630762,70.4210585 381.578022,70.3558323 C380.525281,70.290606 379.523479,70.1601535 378.572616,69.9644747 L378.572616,69.9644747 L378.572616,45.0154269 C379.523479,44.4936168 380.661118,44.0533395 381.985534,43.694595 C383.30995,43.3358505 384.651345,43.1564783 386.00972,43.1564783 C388.998146,43.1564783 391.222485,44.297938 392.682738,46.5808574 C394.142992,48.8637768 394.873118,52.1577033 394.873118,56.4626371 C394.873118,61.550286 393.922256,65.1540373 392.02053,67.2738911 C390.118805,69.3937448 387.537892,70.4536717 384.277792,70.4536717 Z M438.923284,81.372549 C441.834088,81.372549 444.453811,81.123386 446.782454,80.62506 C449.111097,80.1267339 451.310372,79.5121318 453.380276,78.7812536 L453.380276,78.7812536 L451.730821,68.3164066 C450.243077,68.8479544 448.415739,69.3795022 446.248807,69.91105 C444.081875,70.4425978 441.801745,70.7083716 439.408418,70.7083716 C435.527346,70.7083716 432.357804,69.8279956 429.899792,68.0672436 C427.44178,66.3064916 426.212774,63.8979157 426.212774,60.8415159 L426.212774,60.8415159 L455.805946,60.8415159 C455.870631,60.3099682 455.919144,59.6123117 455.951487,58.7485465 C455.983829,57.8847814 456,57.054238 456,56.2569163 C456,48.4165865 454.253518,42.4532849 450.760553,38.3670113 C447.267588,34.2807377 442.15751,32.2376009 435.430319,32.2376009 C432.713569,32.2376009 430.061503,32.7691487 427.474122,33.8322443 C424.886741,34.8953398 422.59044,36.4733723 420.585219,38.5663417 C418.579999,40.6593111 416.962886,43.2672174 415.73388,46.3900606 C414.504873,49.5129038 413.89037,53.1340731 413.89037,57.2535684 C413.89037,61.2401768 414.472531,64.7284591 415.636853,67.7184154 C416.801174,70.7083716 418.466801,73.2166127 420.633733,75.2431387 C422.800665,77.2696646 425.420388,78.7978645 428.492903,79.8277383 C431.565418,80.8576121 435.042212,81.372549 438.923284,81.372549 Z M445.132999,52.710496 L426.115747,52.710496 C426.250621,51.4880964 426.537228,50.2978652 426.975569,49.1398025 C427.41391,47.9817397 428.020844,46.9523506 428.79637,46.0516352 C429.571896,45.1509197 430.549734,44.4432147 431.729882,43.9285201 C432.910031,43.4138256 434.30935,43.1564783 435.92784,43.1564783 C437.613766,43.1564783 439.029944,43.4299098 440.176375,43.9767727 C441.322805,44.5236357 442.266924,45.2474249 443.008731,46.1481404 C443.750539,47.0488559 444.290036,48.0621608 444.627221,49.1880551 C444.964406,50.3139494 445.132999,51.4880964 445.132999,52.710496 L445.132999,52.710496 Z" id="Tube" fill="#000000" fill-rule="nonzero"></path>
            <polygon id="Triangle" fill="#000000" transform="translate(19.000000, 25.000000) rotate(90.000000) translate(-19.000000, -25.000000) " points="19 6 44 44 -6 44"></polygon>
            <polygon id="Triangle-Copy" fill="#737373" transform="translate(19.000000, 75.000000) rotate(90.000000) translate(-19.000000, -75.000000) " points="19 56 44 94 -6 94"></polygon>
            <polygon id="Triangle-Copy-2" fill="#F1680D" transform="translate(57.000000, 50.000000) rotate(90.000000) translate(-57.000000, -50.000000) " points="57 31 82 69 32 69"></polygon>
        </g>
        <path d="M482.998907,45.3560372 C484.071403,44.1011352 485.236066,42.5820433 486.492896,40.7987616 C487.749727,39.0154799 488.9898,37.0918473 490.213115,35.0278638 C491.43643,32.9638803 492.601093,30.8173375 493.707104,28.5882353 C494.813115,26.3591331 495.768306,24.1878225 496.572678,22.0743034 L496.572678,22.0743034 L489.936612,22.0743034 C489.567942,23.2961816 489.065209,24.6501548 488.428415,26.1362229 C487.791621,27.622291 487.096175,29.1166151 486.342077,30.619195 C485.587978,32.121775 484.808743,33.5583075 484.004372,34.9287926 C483.2,36.2992776 482.445902,37.4798762 481.742077,38.4705882 C481.574499,37.2817337 481.415301,35.9772962 481.264481,34.5572755 C481.113661,33.1372549 480.979599,31.7089783 480.862295,30.2724458 C480.744991,28.8359133 480.652823,27.4076367 480.585792,25.9876161 C480.518761,24.5675955 480.468488,23.2631579 480.434973,22.0743034 L480.434973,22.0743034 L474,22.0743034 C474.268124,26.7636739 474.712204,31.0650155 475.33224,34.9783282 C475.952277,38.8916409 476.647723,42.3508772 477.418579,45.3560372 L477.418579,45.3560372 L482.998907,45.3560372 Z M504.314754,46 C506.7949,46 508.897996,45.7027864 510.624044,45.1083591 C512.350091,44.5139319 513.749362,43.7296182 514.821858,42.755418 C515.894353,41.7812178 516.665209,40.6914345 517.134426,39.4860681 C517.603643,38.2807018 517.838251,37.0670795 517.838251,35.8452012 C517.838251,34.4582043 517.469581,33.1785346 516.73224,32.006192 C515.9949,30.8338493 514.855373,29.9009288 513.313661,29.2074303 C515.62623,28.3157895 517.318761,27.1434469 518.391257,25.6904025 C519.463752,24.2373581 520,22.6026832 520,20.7863777 C520,19.630547 519.765392,18.6315789 519.296175,17.7894737 C518.826958,16.9473684 518.181785,16.245614 517.360656,15.6842105 C516.539526,15.122807 515.584335,14.7017544 514.495082,14.4210526 C513.405829,14.1403509 512.241166,14 511.001093,14 C509.660474,14 508.210929,14.2146543 506.652459,14.6439628 C505.093989,15.0732714 503.610929,15.6511868 502.203279,16.377709 L502.203279,16.377709 L503.761749,20.8359133 C504.834244,20.2414861 505.90674,19.7874097 506.979235,19.4736842 C508.05173,19.1599587 509.023679,19.003096 509.895082,19.003096 C511.068124,19.003096 512.031694,19.2672859 512.785792,19.7956656 C513.539891,20.3240454 513.91694,21.0835913 513.91694,22.0743034 C513.91694,22.998968 513.707468,23.7667699 513.288525,24.377709 C512.869581,24.9886481 512.333333,25.4840041 511.679781,25.8637771 C511.02623,26.2435501 510.322404,26.5077399 509.568306,26.6563467 C508.814208,26.8049536 508.102004,26.879257 507.431694,26.879257 L507.431694,26.879257 L504.86776,26.879257 L503.610929,31.6842105 L505.672131,31.6842105 C507.548998,31.6842105 509.015301,31.997936 510.071038,32.625387 C511.126776,33.252838 511.654645,34.2435501 511.654645,35.5975232 C511.654645,36.621259 511.461931,37.4798762 511.076503,38.1733746 C510.691075,38.8668731 510.179964,39.4282766 509.543169,39.8575851 C508.906375,40.2868937 508.169035,40.5923633 507.331148,40.7739938 C506.49326,40.9556244 505.6051,41.0464396 504.666667,41.0464396 C503.326047,41.0464396 502.018944,40.8648091 500.745355,40.501548 C499.471767,40.1382869 498.365756,39.6759546 497.427322,39.1145511 L497.427322,39.1145511 L495.315847,43.869969 C496.689982,44.629515 498.122769,45.1744066 499.614208,45.504644 C501.105647,45.8348813 502.672495,46 504.314754,46 Z" id="v3" fill="#F1680D" fill-rule="nonzero"></path>
    </g>
</svg>